<svg width="480" height="132" viewBox="0 0 480 132" fill="none" xmlns="http://www.w3.org/2000/svg">
<path d="M26.8583 43.5319L28.7474 30.1438H39.0965L36.386 49.3635C35.9754 49.8563 34.7433 50.4313 34.2505 50.7598C29.9795 53.0596 24.8049 54.4559 20.0411 54.4559C8.45996 54.4559 0 47.3101 0 35.4005C0 20.5339 11.499 8.29575 26.4476 8.29575C31.1294 8.29575 38.0287 9.52778 41.3963 13.2239L36.0575 22.0124C34.0041 19.8769 29.9795 18.3984 27.1047 18.3984C18.3984 18.3984 11.4168 25.2978 11.4168 33.922C11.4168 41.3964 16.5914 44.3532 23.5729 44.3532C24.8049 44.4354 25.8727 44.1068 26.8583 43.5319Z" fill="#C9ED4C"/>
<path d="M85.3387 31.54C85.3387 43.6961 76.6323 55.0308 63.9013 55.0308C54.3736 55.0308 47.967 48.1314 47.967 38.768C47.967 26.694 56.9198 15.2772 69.4865 15.2772C79.0143 15.2772 85.3387 22.2587 85.3387 31.54ZM58.8911 37.9466C58.8911 42.0534 60.4516 46.4066 65.2155 46.4066C72.0328 46.4066 74.5789 37.8645 74.5789 32.2792C74.5789 28.1725 73.1005 23.9836 68.3367 23.9836C61.6015 23.9836 58.8911 32.4435 58.8911 37.9466Z" fill="white"/>
<path d="M130.185 31.54C130.185 43.6961 121.479 55.0308 108.748 55.0308C99.22 55.0308 92.8135 48.1314 92.8135 38.768C92.8135 26.694 101.766 15.2772 114.333 15.2772C123.779 15.2772 130.185 22.2587 130.185 31.54ZM103.655 37.9466C103.655 42.0534 105.216 46.4066 109.98 46.4066C116.797 46.4066 119.343 37.8645 119.343 32.2792C119.343 28.1725 117.865 23.9836 113.101 23.9836C106.448 23.9836 103.655 32.4435 103.655 37.9466Z" fill="white"/>
<path d="M157.864 14.7023C160.246 14.7023 164.189 15.7701 165.421 18.0699L167.639 2.62839H177.248L170.021 53.7988H160.411L160.821 50.5955C157.864 53.306 155.647 54.538 151.376 54.538C142.505 54.538 137.659 46.2424 137.659 38.2752C137.577 26.2013 144.887 14.7023 157.864 14.7023ZM148.83 37.0432C148.83 41.3964 150.801 45.3389 155.729 45.3389C158.029 45.3389 160.493 43.8604 161.971 42.2177L164.107 27.5155C163.285 25.5442 160.657 24.5586 158.686 24.5586C152.197 24.5586 148.83 31.458 148.83 37.0432Z" fill="white"/>
<path d="M246.571 9.03494H256.099L249.774 53.7167H239.425L243.696 23.7372L228.83 39.343L218.316 24.0657L214.045 53.7988H203.696L210.021 9.11708H219.631L230.883 24.9692L246.571 9.03494Z" fill="#C9ED4C"/>
<path d="M299.959 31.54C299.959 43.6961 291.253 55.0308 278.522 55.0308C268.994 55.0308 262.587 48.1314 262.587 38.768C262.587 26.694 271.54 15.2772 284.107 15.2772C293.635 15.2772 299.959 22.2587 299.959 31.54ZM273.429 37.9466C273.429 42.0534 274.99 46.4066 279.754 46.4066C286.571 46.4066 289.117 37.8645 289.117 32.2792C289.117 28.1725 287.639 23.9836 282.875 23.9836C276.222 23.9836 273.429 32.4435 273.429 37.9466Z" fill="white"/>
<path d="M318.686 34.6612L315.976 53.7988H306.119L311.458 15.6058H321.397L320.575 20.9446C322.3 17.4949 326.9 14.8666 330.76 14.8666C333.224 14.8666 334.538 15.2773 336.674 16.2629L330.267 26.7762C329.364 26.1191 327.803 25.8727 326.735 25.8727C321.479 25.8727 319.343 30.0616 318.686 34.6612Z" fill="white"/>
<path d="M373.306 25.5443C373.306 26.8585 373.224 28.0905 372.977 29.3225L369.528 53.7989H359.754L362.628 33.5936C362.71 32.8544 362.793 32.1151 362.793 31.3759C362.793 28.2548 361.561 26.2014 358.111 26.2014C353.922 26.2014 351.869 29.8153 351.376 33.5936L348.501 53.7989H338.645L343.984 15.6059H353.922L353.101 20.9447C354.825 17.495 359.425 14.7845 363.285 14.7845C370.349 14.7845 373.306 18.8913 373.306 25.5443Z" fill="white"/>
<path d="M388.829 53.7988H378.973L384.394 15.6058H394.25L388.829 53.7988ZM389.897 11.0883C387.105 11.0883 384.969 9.11704 384.969 6.2423C384.969 2.79261 388.09 0 391.458 0C394.25 0 396.55 1.88912 396.55 4.76386C396.55 8.29569 393.265 11.0883 389.897 11.0883Z" fill="white"/>
<path d="M434.908 25.5443C434.908 26.8585 434.825 28.0905 434.579 29.3225L431.129 53.7989H421.355L424.23 33.5936C424.312 32.8544 424.394 32.1151 424.394 31.3759C424.394 28.2548 423.162 26.2014 419.712 26.2014C415.524 26.2014 413.47 29.8153 412.977 33.5936L410.103 53.7989H400.246L405.585 15.6059H415.524L414.702 20.9447C416.427 17.495 421.027 14.7845 424.887 14.7845C431.951 14.7845 434.908 18.8913 434.908 25.5443Z" fill="white"/>
<path d="M462.094 14.7845C464.805 14.7845 468.912 15.9344 469.979 18.8092L470.39 15.6059H480L476.057 43.9427C474.497 55.2774 468.337 67.762 455.195 67.762C451.581 67.762 444.353 66.5299 441.725 63.7373L446.899 55.5238C449.199 57.0022 452.813 57.9878 455.606 57.9878C460.862 57.9878 464.969 54.0453 465.708 48.8708C463.409 50.7599 460.123 51.4991 457.248 51.4991C447.885 51.4991 443.039 45.0104 443.039 36.1398C443.039 25.2979 450.513 14.7845 462.094 14.7845ZM453.717 34.4149C453.717 38.111 455.852 41.8071 459.959 41.8071C462.341 41.8071 465.955 40.8215 467.269 38.6039C467.68 35.4827 468.747 30.801 468.747 27.6798C468.747 24.9694 464.887 24.0659 462.752 24.0659C457.248 23.9837 453.717 29.4047 453.717 34.4149Z" fill="white"/>
<path d="M176.733 103.283L175.337 113.222H159.895L157.431 130.799H147L153.324 86.1171H185.439L184.043 96.0555H162.277L161.292 103.366H176.733V103.283Z" fill="white"/>
<path d="M201.456 111.579L198.745 130.717H188.889L194.228 92.5239H204.166L203.345 97.8627C205.07 94.413 209.669 91.7847 213.53 91.7847C215.994 91.7847 217.308 92.1953 219.444 93.181L212.955 103.694C212.051 103.037 210.491 102.791 209.423 102.791C204.249 102.791 202.113 106.98 201.456 111.579Z" fill="white"/>
<path d="M238.819 122.668C242.433 122.668 246.54 120.696 249.086 118.068L251.468 125.542C248.019 129.403 241.694 131.456 236.684 131.456C227.074 131.456 220.832 125.132 220.832 115.522C220.832 103.694 229.374 91.7847 241.858 91.7847C248.84 91.7847 254.261 95.9736 254.261 103.202C254.261 111.251 245.965 115.193 238.902 115.193C236.355 115.193 233.645 114.865 231.263 113.551C231.345 118.397 233.399 122.668 238.819 122.668ZM232.906 106.733C234.22 107.39 236.191 107.637 237.67 107.637C240.544 107.637 244.651 106.898 244.651 103.284C244.651 100.984 242.433 99.9161 240.38 99.9161C236.438 99.9161 234.138 103.366 232.906 106.733Z" fill="white"/>
<path d="M294.59 102.462C294.59 103.776 294.508 105.008 294.261 106.24L290.812 130.717H281.038L283.912 110.511C283.994 109.772 284.077 109.033 284.077 108.294C284.077 105.173 282.845 103.119 279.395 103.119C275.206 103.119 273.153 106.733 272.66 110.511L269.785 130.717H259.929L265.268 92.5237H275.206L274.385 97.8626C276.109 94.4129 280.709 91.7024 284.569 91.7024C291.551 91.7024 294.59 95.8092 294.59 102.462Z" fill="white"/>
<path d="M313.713 131.456C309.442 131.456 303.364 130.306 299.832 127.678L304.924 119.054C307.06 120.778 310.427 122.339 313.22 122.339C315.52 122.339 318.641 121.107 318.641 118.396C318.641 114.125 305.746 115.44 305.746 105.665C305.746 96.7127 313.138 91.7024 321.433 91.7024C324.801 91.7024 330.879 92.688 333.015 95.727L328.99 102.709C327.429 101.148 324.308 100.491 322.255 100.491C320.119 100.491 316.998 101.312 316.998 103.941C316.998 108.704 330.386 107.555 330.386 117.164C330.386 126.035 321.926 131.456 313.713 131.456Z" fill="white"/>
</svg>
