<svg width="150" height="36" viewBox="0 0 150 36" fill="none" xmlns="http://www.w3.org/2000/svg">
<path d="M70.5487 24.1807L71.2493 19.2089H75.8595L74.7747 26.8473C74.7747 26.8473 71.8369 28.6778 68.3566 28.6778C64.0854 28.6778 59.9047 26.1242 60.7634 19.9095C61.577 14.1242 66.3679 11.1411 70.7973 11.1411C75.1363 11.1411 76.7182 12.9942 76.7182 12.9942L74.3905 16.8812C74.3905 16.8812 73.0798 15.6383 71.1589 15.6383C68.6956 15.6383 66.2097 17.3106 65.8482 19.9095C65.464 22.6891 66.6617 24.1807 70.0063 24.1807H70.5487Z" fill="white"/>
<path d="M111.475 11.4124H115.679L113.283 28.4068H108.65L110.119 17.9661L104.876 23.3898L101.147 18.0791L99.7011 28.4068H95.0684L97.4638 11.4124H101.667L105.803 17.0169L111.475 11.4124Z" fill="white"/>
<path d="M145.78 17.74L145.148 22.192H139.543L138.684 28.4067H134.052L136.447 11.4124H149.261L148.65 15.8643H140.492L140.221 17.7626H145.78V17.74Z" fill="white"/>
<path d="M87.566 13.8757L87.9727 18.1921L92.0179 19.5254L87.4078 20.8588L85.1705 25.1752L84.7411 20.8588L80.7185 19.5254L85.3061 18.1921L87.566 13.8757Z" fill="url(#paint0_linear_669_4725)"/>
<path d="M126.119 13.8757L126.549 18.1921L130.571 19.5254L125.984 20.8588L123.724 25.1752L123.317 20.8588L119.272 19.5254L123.882 18.1921L126.119 13.8757Z" fill="url(#paint1_linear_669_4725)"/>
<path d="M38.5318 11.8418L30.4414 19.8192L24.9498 12.3842L25.0402 11.774H21.3114L14.9159 11.7514L14.2154 16.452H16.4979H17.6278H17.8086L17.4696 18.8248H16.7239C15.4583 18.8248 14.4188 18.6666 13.5826 18.3729C13.3792 18.3051 13.1984 18.2373 13.0176 18.1469C11.0967 17.2429 10.4414 15.4124 10.803 12.7457C11.3227 9.03954 14.8256 6.66666 18.351 6.66666C21.0854 6.66666 22.9385 8.45197 22.9385 8.45197L26.2606 2.91525C26.2606 2.91525 24.0007 0.271179 17.8538 0.271179C11.5713 0.271179 4.74646 4.54236 3.59392 12.7457C2.37358 21.5819 8.29448 25.2203 14.3736 25.2203C15.1871 25.2203 15.9781 25.1525 16.7465 25.0169L15.9103 31.0056L15.8425 31.5028L15.2097 36H21.8086L22.7352 29.4011L22.7578 29.2881L23.8651 21.3107L29.1532 28.8587L36.6109 21.1525L34.5092 36H41.108L43.1871 21.1525L43.2549 20.7231L44.4979 11.8418H38.5318Z" fill="url(#paint2_linear_669_4725)"/>
<path d="M53.5152 10.6212C52.9954 9.19747 51.0067 8.42911 47.9785 8.27092L48.8372 6.6212L53.0632 5.40086L49.357 4.18052L48.9728 0.203125L46.8937 4.18052L42.6677 5.40086L46.374 6.6212L46.5322 8.24832C41.696 8.31611 34.7807 9.67205 27.1423 12.2483L27.4361 12.6551C34.8711 10.1918 41.7864 8.83589 46.5774 8.76809L46.7581 10.6212L47.7073 8.76809C50.6451 8.85849 52.5886 9.51385 53.0406 10.802C53.7864 12.8359 50.6677 16.1127 45.2666 19.5025L45.1762 20.1579C51.0971 16.5195 54.374 12.9715 53.5152 10.6212Z" fill="#BF30D1"/>
<path d="M0.565638 30.0787C0.00066644 28.5646 1.60519 26.2821 4.99501 23.6606C4.88202 23.5476 4.76903 23.4346 4.65603 23.3217C1.08541 26.0787 -0.496509 28.4968 0.136259 30.2143C0.701231 31.7736 3.00631 32.5872 6.73513 32.5872C7.70688 32.5872 8.76902 32.542 9.94416 32.429C11.2097 32.316 12.543 32.1126 13.9216 31.8866L13.9894 31.412C12.5656 31.6606 11.1871 31.864 9.89897 31.977C4.58823 32.4742 1.19841 31.7962 0.565638 30.0787Z" fill="#BF30D1"/>
<defs>
<linearGradient id="paint0_linear_669_4725" x1="86.1241" y1="21.4487" x2="87.2164" y2="12.7105" gradientUnits="userSpaceOnUse">
<stop stop-color="#C9ED4C"/>
<stop offset="0.1592" stop-color="#BEED5D"/>
<stop offset="0.474" stop-color="#A3EE89"/>
<stop offset="0.9107" stop-color="#77EFCF"/>
<stop offset="1" stop-color="#6DEFDE"/>
</linearGradient>
<linearGradient id="paint1_linear_669_4725" x1="124.092" y1="26.1948" x2="125.184" y2="17.4566" gradientUnits="userSpaceOnUse">
<stop stop-color="#C9ED4C"/>
<stop offset="0.1592" stop-color="#BEED5D"/>
<stop offset="0.474" stop-color="#A3EE89"/>
<stop offset="0.9107" stop-color="#77EFCF"/>
<stop offset="1" stop-color="#6DEFDE"/>
</linearGradient>
<linearGradient id="paint2_linear_669_4725" x1="11.7281" y1="33.5595" x2="41.7938" y2="1.87484" gradientUnits="userSpaceOnUse">
<stop stop-color="#C9ED4C"/>
<stop offset="0.1592" stop-color="#BEED5D"/>
<stop offset="0.474" stop-color="#A3EE89"/>
<stop offset="0.9107" stop-color="#77EFCF"/>
<stop offset="1" stop-color="#6DEFDE"/>
</linearGradient>
</defs>
</svg>
