<svg width="28" height="28" viewBox="0 0 28 28" fill="none" xmlns="http://www.w3.org/2000/svg">
<path d="M26.1711 8.98129C26.1561 7.9531 25.9657 6.93306 25.601 5.97142C24.963 4.32931 23.6637 3.03082 22.0188 2.39517C21.0678 2.03795 20.0624 1.84644 19.0448 1.8247C17.736 1.7663 17.321 1.75 13.9986 1.75C10.6763 1.75 10.2504 1.75 8.95116 1.8247C7.93486 1.84644 6.92945 2.03795 5.97845 2.39517C4.3336 3.03082 3.03296 4.32931 2.39624 5.97142C2.03843 6.92083 1.84524 7.92458 1.82619 8.93918C1.76769 10.2472 1.75 10.6614 1.75 13.9783C1.75 17.2951 1.75 17.7189 1.82619 19.0174C1.8466 20.0333 2.03843 21.0357 2.39624 21.9878C3.03432 23.6286 4.3336 24.9271 5.97982 25.5627C6.92673 25.9322 7.93214 26.1413 8.95252 26.1739C10.2627 26.2323 10.6776 26.25 14 26.25C17.3224 26.25 17.7482 26.25 19.0475 26.1739C20.0638 26.1536 21.0692 25.9621 22.0215 25.6048C23.6664 24.9678 24.9657 23.6693 25.6038 22.0286C25.9616 21.0778 26.1534 20.0754 26.1738 19.0581C26.2323 17.7515 26.25 17.3372 26.25 14.019C26.2473 10.7022 26.2473 10.2811 26.1711 8.98129ZM13.9905 20.2506C10.5157 20.2506 7.70086 17.4404 7.70086 13.9715C7.70086 10.5025 10.5157 7.69232 13.9905 7.69232C17.4625 7.69232 20.2801 10.5025 20.2801 13.9715C20.2801 17.4404 17.4625 20.2506 13.9905 20.2506ZM20.5304 8.92424C19.7182 8.92424 19.0638 8.26957 19.0638 7.46006C19.0638 6.65054 19.7182 5.99587 20.5304 5.99587C21.3399 5.99587 21.9957 6.65054 21.9957 7.46006C21.9957 8.26957 21.3399 8.92424 20.5304 8.92424Z" fill="white"/>
<path d="M13.9892 17.5049C15.9442 17.5049 17.5291 15.9226 17.5291 13.9708C17.5291 12.019 15.9442 10.4368 13.9892 10.4368C12.0341 10.4368 10.4492 12.019 10.4492 13.9708C10.4492 15.9226 12.0341 17.5049 13.9892 17.5049Z" fill="white"/>
</svg>
