<svg width="28" height="28" viewBox="0 0 28 28" fill="none" xmlns="http://www.w3.org/2000/svg">
<path d="M8.80545 25.4676C19.372 25.4676 25.1499 16.7132 25.1499 9.12318C25.1499 8.87477 25.1499 8.62635 25.1343 8.38015C26.2585 7.56667 27.2289 6.5595 28 5.40582C26.952 5.87064 25.8403 6.17568 24.7018 6.31076C25.9005 5.59216 26.7975 4.46269 27.2259 3.13237C26.0981 3.80187 24.8641 4.27371 23.5773 4.52749C22.7113 3.60665 21.5659 2.9969 20.3184 2.79262C19.071 2.58833 17.7909 2.8009 16.6764 3.39742C15.5619 3.99394 14.6751 4.94116 14.1532 6.09248C13.6313 7.24381 13.5034 8.53506 13.7893 9.7664C11.5053 9.65197 9.27093 9.0585 7.2312 8.0245C5.19148 6.99049 3.39201 5.53909 1.94962 3.7645C1.21427 5.02879 0.988432 6.52582 1.31809 7.95077C1.64775 9.37573 2.50812 10.6215 3.72402 11.4343C2.81612 11.4037 1.92868 11.1565 1.13561 10.7135V10.7867C1.13546 12.1115 1.59303 13.3957 2.4309 14.4219C3.26876 15.4481 4.43546 16.1533 5.73352 16.4182C4.88734 16.6487 3.99957 16.6821 3.13847 16.5158C3.50509 17.6579 4.21963 18.6567 5.18208 19.3726C6.14454 20.0885 7.30673 20.4855 8.50602 20.5082C6.46989 22.1027 3.95692 22.9667 1.37072 22.9613C0.912645 22.9615 0.454949 22.9349 0 22.8814C2.62671 24.5686 5.68355 25.4641 8.80545 25.4609" fill="white"/>
</svg>
