<svg width="120" height="120" viewBox="0 0 120 120" fill="none" xmlns="http://www.w3.org/2000/svg">
<path fill-rule="evenodd" clip-rule="evenodd" d="M71.8929 3.89595C68.4456 1.36487 64.2805 0 60.0038 0C55.727 0 51.5619 1.36487 48.1147 3.89595L41.1537 8.99632C40.0073 9.83881 38.6743 10.392 37.2682 10.6089L28.7245 11.9215C24.5008 12.5708 20.5943 14.55 17.5726 17.5715C14.5509 20.593 12.5716 24.4993 11.9223 28.7227L10.6096 37.2734C10.3927 38.6794 9.83942 40.0123 8.99688 41.1586L3.89619 48.1191C1.36496 51.5662 0 55.731 0 60.0075C0 64.284 1.36496 68.4488 3.89619 71.8959L8.99688 78.8564C9.84449 80.0039 10.3921 81.3315 10.6096 82.7416L11.9223 91.2773C12.5716 95.5007 14.5509 99.407 17.5726 102.429C20.5943 105.45 24.5008 107.429 28.7245 108.078L37.2607 109.391C38.6634 109.609 39.9986 110.156 41.1462 111.004L48.1072 116.104C51.5544 118.635 55.7195 120 59.9963 120C64.273 120 68.4381 118.635 71.8854 116.104L78.8463 111.004C79.9916 110.159 81.325 109.606 82.7318 109.391L91.268 108.078C95.4941 107.43 99.4031 105.451 102.426 102.428C105.45 99.4044 107.429 95.4956 108.078 91.2698L109.39 82.7341C109.608 81.3315 110.156 79.9964 111.003 78.8489L116.104 71.8884C118.635 68.4413 120 64.2765 120 60C120 55.7235 118.635 51.5587 116.104 48.1116L111.003 41.1511C110.161 40.0046 109.608 38.6718 109.39 37.2659L108.085 28.7227C107.436 24.4993 105.457 20.593 102.435 17.5715C99.4132 14.55 95.5067 12.5708 91.283 11.9215L82.7468 10.6089C81.3408 10.3917 80.0079 9.83855 78.8613 8.99632L71.8929 3.89595ZM54.7755 12.9566C57.8885 10.6689 62.1265 10.6689 65.232 12.9566L72.1929 18.057C74.8032 19.9771 77.8337 21.2297 81.0441 21.7247L89.5652 23.0298C93.3908 23.6149 96.3837 26.6151 96.9687 30.4329L98.2739 38.961C98.769 42.1637 100.022 45.1939 101.942 47.8116L107.043 54.7646C109.33 57.8773 109.33 62.1152 107.043 65.2204L101.942 72.1809C100.023 74.7921 98.7648 77.8287 98.2739 81.0315L96.9687 89.5521C96.6849 91.414 95.8134 93.1365 94.4816 94.4682C93.1498 95.8 91.4272 96.6713 89.5652 96.9552L81.0366 98.2603C77.8335 98.7511 74.7968 100.009 72.1854 101.928L65.232 107.028C62.119 109.316 57.881 109.316 54.7755 107.028L47.8146 101.928C45.2033 100.009 42.1665 98.7511 38.9634 98.2603L30.4423 96.9552C28.5803 96.6713 26.8577 95.8 25.5259 94.4682C24.1941 93.1365 23.3226 91.414 23.0388 89.5521L21.7336 81.024C21.2427 77.8212 19.9843 74.7846 18.0656 72.1734L12.9649 65.2204C11.8522 63.7044 11.2522 61.873 11.2522 59.9925C11.2522 58.112 11.8522 56.2806 12.9649 54.7646L18.0656 47.8041C19.9859 45.1939 21.2385 42.1637 21.7336 38.9535L23.0388 30.4329C23.6238 26.6076 26.6243 23.6149 30.4423 23.0298L38.9709 21.7247C42.174 21.2339 45.2108 19.9755 47.8221 18.057L54.7755 12.9566Z" fill="#C9ED4C"/>
<path d="M86.1164 46.9153C86.1421 48.3727 85.6011 49.7831 84.6074 50.8495L56.4786 78.9766C55.4238 80.03 53.9939 80.6217 52.5031 80.6217C51.0122 80.6217 49.5824 80.03 48.5275 78.9766L35.4008 65.8506C34.407 64.7842 33.866 63.3738 33.8917 61.9164C33.9175 60.4591 34.5079 59.0686 35.5386 58.0379C36.5694 57.0072 37.9599 56.4168 39.4174 56.3911C40.8748 56.3654 42.2854 56.9064 43.3518 57.9L52.5031 67.0507L76.6563 42.899C77.7228 41.9053 79.1333 41.3643 80.5908 41.39C82.0482 41.4158 83.4388 42.0061 84.4695 43.0368C85.5003 44.0675 86.0907 45.458 86.1164 46.9153Z" fill="#BF30D1"/>
</svg>
