<svg width="120" height="120" viewBox="0 0 120 120" fill="none" xmlns="http://www.w3.org/2000/svg">
<path d="M107.437 15.5734C93.8906 4.18586 72.9609 5.89633 60 19.0881C47.0391 5.89633 26.1094 4.16243 12.5625 15.5734C-5.06247 30.4053 -2.48435 54.5862 10.0781 67.403L51.1875 109.274C53.5312 111.664 56.6719 113 60 113C63.3515 113 66.4687 111.688 68.8125 109.298L109.922 67.4265C122.461 54.6096 125.086 30.4287 107.437 15.5734ZM101.906 59.5067L60.7969 101.378C60.2344 101.941 59.7656 101.941 59.2031 101.378L18.0938 59.5067C9.53908 50.7904 7.80471 34.2949 19.8047 24.196C28.9219 16.5341 42.9844 17.6822 51.7969 26.6563L60 35.0212L68.2031 26.6563C77.0625 17.6353 91.125 16.5341 100.195 24.1726C112.172 34.2714 110.391 50.8607 101.906 59.5067Z" fill="#C9ED4C"/>
<path d="M74.6937 60.1722C74.1408 59.9382 73.6379 59.5936 73.2139 59.158L66.4071 52.1074C65.9818 51.6704 65.6442 51.1506 65.4138 50.5778C65.1834 50.005 65.0648 49.3906 65.0648 48.7701C65.0648 48.1496 65.1834 47.5353 65.4138 46.9625C65.6442 46.3897 65.9818 45.8698 66.4071 45.4329L73.2139 38.3823C73.637 37.9441 74.1393 37.5964 74.6921 37.3593C75.2449 37.1221 75.8374 37 76.4358 37C77.0342 37 77.6267 37.1221 78.1795 37.3593C78.7323 37.5964 79.2346 37.9441 79.6577 38.3823C80.0808 38.8206 80.4164 39.3409 80.6454 39.9135C80.8744 40.4861 80.9923 41.0998 80.9923 41.7196C80.9923 42.3394 80.8744 42.9531 80.6454 43.5257C80.4164 44.0983 80.0808 44.6186 79.6577 45.0569L76.0728 48.7701L79.6577 52.4834C80.083 52.9204 80.4206 53.4403 80.651 54.013C80.8814 54.5858 81 55.2002 81 55.8207C81 56.4412 80.8814 57.0556 80.651 57.6283C80.4206 58.2011 80.083 58.721 79.6577 59.158C79.2337 59.5936 78.7308 59.9382 78.1779 60.1722C77.625 60.4061 77.033 60.5246 76.4358 60.5211C75.8386 60.5246 75.2466 60.4061 74.6937 60.1722Z" fill="#BF30D1"/>
<path d="M54.5929 52.1074L47.7861 59.158C47.3621 59.5936 46.8592 59.9382 46.3063 60.1722C45.7534 60.4061 45.1614 60.5246 44.5642 60.5211C43.967 60.5246 43.375 60.4061 42.8221 60.1722C42.2692 59.9382 41.7663 59.5936 41.3423 59.158C40.917 58.721 40.5794 58.2011 40.349 57.6283C40.1186 57.0556 40 56.4412 40 55.8207C40 55.2002 40.1186 54.5858 40.349 54.013C40.5794 53.4403 40.917 52.9204 41.3423 52.4834L44.9726 48.7701L41.3423 45.0569C40.4878 44.1718 40.0077 42.9713 40.0077 41.7196C40.0077 40.4679 40.4878 39.2674 41.3423 38.3823C42.1968 37.4972 43.3557 37 44.5642 37C45.7726 37 46.9316 37.4972 47.7861 38.3823L54.5929 45.4329C55.0182 45.8698 55.3558 46.3897 55.5862 46.9625C55.8166 47.5353 55.9352 48.1496 55.9352 48.7701C55.9352 49.3906 55.8166 50.005 55.5862 50.5778C55.3558 51.1506 55.0182 51.6704 54.5929 52.1074Z" fill="#BF30D1"/>
<path d="M61.0367 72.4735C64.9333 72.4735 68.7126 71.092 71.7461 68.5587C72.6728 67.7608 73.8675 67.377 75.0675 67.4916C75.6616 67.5483 76.2392 67.7257 76.7671 68.0137C77.2951 68.3016 77.7631 68.6944 78.1445 69.1697C78.9148 70.1296 79.2853 71.3671 79.1747 72.61C79.0641 73.8529 78.4813 74.9994 77.5546 75.7972C72.9199 79.8048 67.0741 82 61.0367 82C54.9993 82 49.1535 79.8048 44.5188 75.7972C43.5921 74.9994 43.0093 73.8529 42.8987 72.61C42.7881 71.3671 43.1586 70.1296 43.9289 69.1697C44.6991 68.2098 45.806 67.6062 47.0059 67.4916C48.2059 67.377 49.4006 67.7608 50.3273 68.5587C53.3608 71.092 57.1401 72.4735 61.0367 72.4735Z" fill="#BF30D1"/>
</svg>
