<svg width="120" height="120" viewBox="0 0 120 120" fill="none" xmlns="http://www.w3.org/2000/svg">
<path d="M44.0775 66.535C48.2678 66.535 52.364 65.2925 55.848 62.9645C59.3321 60.6365 62.0476 57.3276 63.6512 53.4563C65.2547 49.585 65.6743 45.3251 64.8568 41.2154C64.0393 37.1056 62.0215 33.3306 59.0586 30.3676C56.0956 27.4046 52.3205 25.3868 48.2108 24.5693C44.101 23.7518 39.8411 24.1714 35.9698 25.775C32.0985 27.3785 28.7897 30.094 26.4617 33.5781C24.1337 37.0622 22.8911 41.1584 22.8911 45.3486C22.8911 50.9676 25.1232 56.3565 29.0965 60.3297C33.0697 64.3029 38.4585 66.535 44.0775 66.535ZM44.0775 34.7554C46.1726 34.7554 48.2207 35.3767 49.9628 36.5407C51.7048 37.7047 53.0626 39.3591 53.8643 41.2948C54.6661 43.2304 54.8759 45.3604 54.4672 47.4153C54.0584 49.4701 53.0495 51.3577 51.568 52.8392C50.0865 54.3206 48.199 55.3295 46.1441 55.7383C44.0893 56.147 41.9593 55.9372 40.0237 55.1355C38.088 54.3337 36.4336 52.9759 35.2696 51.2339C34.1056 49.4919 33.4843 47.4438 33.4843 45.3486C33.4843 42.5391 34.6004 39.8447 36.587 37.8581C38.5736 35.8715 41.268 34.7554 44.0775 34.7554Z" fill="#C9ED4C"/>
<path d="M86.4479 77.1269C89.5906 77.1269 92.6627 76.195 95.2758 74.449C97.8889 72.703 99.9255 70.2214 101.128 67.3179C102.331 64.4144 102.645 61.2195 102.032 58.1372C101.419 55.0549 99.9059 52.2236 97.6837 50.0013C95.4615 47.7791 92.6302 46.2658 89.5478 45.6526C86.4655 45.0395 83.2706 45.3542 80.3671 46.5569C77.4637 47.7595 74.982 49.7962 73.236 52.4092C71.49 55.0223 70.5581 58.0944 70.5581 61.2371C70.5581 65.4514 72.2322 69.493 75.2121 72.4729C78.192 75.4528 82.2337 77.1269 86.4479 77.1269ZM86.4479 55.9405C87.4955 55.9405 88.5195 56.2512 89.3905 56.8332C90.2616 57.4152 90.9404 58.2424 91.3413 59.2102C91.7422 60.178 91.8471 61.243 91.6427 62.2704C91.4384 63.2979 90.9339 64.2416 90.1932 64.9824C89.4524 65.7231 88.5087 66.2276 87.4812 66.4319C86.4538 66.6363 85.3888 66.5314 84.421 66.1305C83.4532 65.7297 82.6259 65.0508 82.0439 64.1798C81.4619 63.3087 81.1513 62.2847 81.1513 61.2371C81.1513 59.8324 81.7093 58.4852 82.7026 57.4919C83.6959 56.4986 85.0432 55.9405 86.4479 55.9405Z" fill="#C9ED4C"/>
<path d="M86.449 82.4237C80.5794 82.4302 74.8783 84.3865 70.2414 87.9851C65.0534 82.8175 58.4514 79.3019 51.268 77.8815C44.0846 76.4611 36.6414 77.1996 29.8772 80.0039C23.113 82.8081 17.3306 87.5526 13.2592 93.6389C9.18786 99.7252 7.00991 106.881 7 114.203C7 115.608 7.55803 116.955 8.55134 117.949C9.54464 118.942 10.8919 119.5 12.2966 119.5C13.7013 119.5 15.0486 118.942 16.0419 117.949C17.0352 116.955 17.5932 115.608 17.5932 114.203C17.5932 107.18 20.3834 100.444 25.3499 95.477C30.3164 90.5105 37.0525 87.7203 44.0762 87.7203C51.0999 87.7203 57.836 90.5105 62.8025 95.477C67.769 100.444 70.5592 107.18 70.5592 114.203C70.5592 115.608 71.1172 116.955 72.1105 117.949C73.1038 118.942 74.451 119.5 75.8558 119.5C77.2605 119.5 78.6077 118.942 79.601 117.949C80.5943 116.955 81.1524 115.608 81.1524 114.203C81.165 107.998 79.5974 101.892 76.5973 96.4597C78.938 94.6101 81.7521 93.4567 84.7176 93.1317C87.6832 92.8066 90.6803 93.323 93.3661 94.6216C96.0519 95.9203 98.3178 97.9489 99.9046 100.475C101.491 103.001 102.335 105.923 102.339 108.907C102.339 110.311 102.897 111.659 103.89 112.652C104.883 113.645 106.231 114.203 107.635 114.203C109.04 114.203 110.387 113.645 111.381 112.652C112.374 111.659 112.932 110.311 112.932 108.907C112.932 101.883 110.142 95.1469 105.175 90.1804C100.209 85.2139 93.4727 82.4237 86.449 82.4237Z" fill="#C9ED4C"/>
<path d="M71.4803 24.1341C74.7171 23.7353 81.6768 24.7379 83.6218 31.939" stroke="#BF30D1" stroke-width="9" stroke-linecap="round"/>
<path d="M69.3832 7.16823C77.8427 6.12587 96.0324 8.74632 101.116 27.567" stroke="#BF30D1" stroke-width="9" stroke-linecap="round"/>
</svg>
