<svg width="28" height="28" viewBox="0 0 28 28" fill="none" xmlns="http://www.w3.org/2000/svg">
<path fill-rule="evenodd" clip-rule="evenodd" d="M20.738 24.1467L19.1658 22.275C22.2353 21.4515 23.4332 19.3552 23.4332 19.3552C19.5401 23.0237 8.90909 23.1734 4.79144 19.3552C4.79144 19.3552 5.83957 21.3018 8.98396 22.275L7.26203 24.1467C2.02139 24.0718 0 20.5531 0 20.5531C0 12.767 3.44385 6.55311 3.44385 6.55311C6.96257 4.08252 10.1818 4.08252 10.1818 4.08252L10.4064 4.38198C6.06417 5.57985 4.19251 7.52637 4.19251 7.52637C9.28342 4.08252 19.7647 4.38198 23.8824 7.52637C23.9572 7.4515 21.4118 5.43011 17.4438 4.38198L17.8182 4.08252C17.8182 4.08252 21.0374 4.08252 24.5562 6.55311C24.5562 6.55311 28 12.767 28 20.5531C28 20.5531 25.9786 24.0718 20.738 24.1467ZM9.5077 18.3075C10.8722 18.3075 11.9783 17.1344 11.9783 15.6872C11.9783 14.2401 10.8722 13.0669 9.5077 13.0669C8.14323 13.0669 7.03711 14.2401 7.03711 15.6872C7.03711 17.1344 8.14323 18.3075 9.5077 18.3075ZM20.6629 15.6872C20.6629 17.1344 19.5567 18.3075 18.1923 18.3075C16.8278 18.3075 15.7217 17.1344 15.7217 15.6872C15.7217 14.2401 16.8278 13.0669 18.1923 13.0669C19.5567 13.0669 20.6629 14.2401 20.6629 15.6872Z" fill="white"/>
</svg>
