<svg width="70" height="70" viewBox="0 0 70 70" fill="none" xmlns="http://www.w3.org/2000/svg">
<path d="M38.1287 44.6467C46.9498 41.3788 54.5993 37.4872 59.8365 33.8321C62.4535 32.0056 64.4801 30.2299 65.748 28.6114C67.0057 27.0058 67.5678 25.4869 67.0953 24.2117C66.6229 22.9364 65.2069 22.1503 63.2068 21.7517C61.1905 21.3498 58.4961 21.3231 55.3207 21.6424C48.9662 22.2815 40.6275 24.3129 31.8065 27.5807C22.9854 30.8486 15.3359 34.7401 10.0987 38.3953C7.48168 40.2218 5.45502 41.9975 4.18715 43.616C2.92945 45.2216 2.3674 46.7405 2.83983 48.0157C3.31227 49.291 4.72822 50.0771 6.72838 50.4757C8.7447 50.8776 11.4391 50.9043 14.6145 50.585C20.969 49.9459 29.3076 47.9145 38.1287 44.6467Z" stroke="white" stroke-width="0.5"/>
<path d="M32.9055 19.0051L33.4855 25.1117L39.2168 26.988L32.7008 28.8985L29.494 35.0051L28.914 28.8985L23.2168 26.988L29.7328 25.1117L32.9055 19.0051Z" fill="white"/>
<path d="M14.533 0L15.403 9.15992L24 11.9744L14.226 14.8401L9.41578 24L8.54584 14.8401L0 11.9744L9.77399 9.15992L14.533 0Z" fill="white"/>
</svg>
